<svg width="18" height="18" viewBox="0 0 18 18" fill="none" xmlns="http://www.w3.org/2000/svg">
<path d="M10.125 3.04506C10.125 2.04306 8.91301 1.54131 8.20501 2.25006L4.83001 5.62506H3.38101C2.52526 5.62506 1.64251 6.12306 1.38601 7.05381C1.21199 7.68789 1.1242 8.34253 1.12501 9.00006C1.12501 9.67356 1.21576 10.3261 1.38751 10.9463C1.64326 11.8763 2.52601 12.3751 3.38176 12.3751H4.82926L8.20426 15.7501C8.91301 16.4588 10.125 15.9571 10.125 14.9551V3.04506ZM13.938 3.82956C14.0435 3.72422 14.1864 3.66505 14.3355 3.66505C14.4846 3.66505 14.6275 3.72422 14.733 3.82956C17.589 6.68481 17.589 11.3146 14.733 14.1706C14.6264 14.2699 14.4853 14.324 14.3396 14.3214C14.1939 14.3189 14.0549 14.2598 13.9518 14.1568C13.8487 14.0537 13.7897 13.9147 13.7871 13.7689C13.7846 13.6232 13.8386 13.4822 13.938 13.3756C14.5127 12.801 14.9685 12.1188 15.2795 11.3681C15.5905 10.6173 15.7506 9.81268 15.7506 9.00006C15.7506 8.18744 15.5905 7.38277 15.2795 6.63202C14.9685 5.88127 14.5127 5.19913 13.938 4.62456C13.8327 4.51909 13.7735 4.37612 13.7735 4.22706C13.7735 4.07799 13.8327 3.93502 13.938 3.82956Z" fill="#FF765D"/>
<path d="M11.9489 5.81771C12.0011 5.76544 12.0632 5.72398 12.1314 5.69568C12.1997 5.66739 12.2729 5.65283 12.3468 5.65283C12.4207 5.65283 12.4939 5.66739 12.5621 5.69568C12.6304 5.72398 12.6924 5.76544 12.7447 5.81771C13.1626 6.23559 13.4941 6.7317 13.7203 7.27771C13.9465 7.82373 14.063 8.40895 14.063 8.99996C14.063 9.59097 13.9465 10.1762 13.7203 10.7222C13.4941 11.2682 13.1626 11.7643 12.7447 12.1822C12.6385 12.2846 12.4964 12.3413 12.3489 12.3399C12.2014 12.3386 12.0604 12.2793 11.9561 12.175C11.8519 12.0706 11.7928 11.9295 11.7916 11.7821C11.7904 11.6346 11.8471 11.4925 11.9497 11.3865C12.2631 11.0731 12.5117 10.701 12.6813 10.2915C12.8509 9.88205 12.9382 9.44318 12.9382 8.99996C12.9382 8.55675 12.8509 8.11787 12.6813 7.7084C12.5117 7.29892 12.2631 6.92686 11.9497 6.61346C11.8443 6.50799 11.7852 6.36503 11.7852 6.21596C11.7852 6.0669 11.8443 5.92393 11.9497 5.81846L11.9489 5.81771Z" fill="#FF765D"/>
</svg>
