<svg width="25" height="24" viewBox="0 0 25 24" fill="none" xmlns="http://www.w3.org/2000/svg">
<path d="M5.6693 21.7193C5.0727 21.7193 4.562 21.5069 4.1372 21.0821C3.7124 20.6573 3.5 20.1466 3.5 19.55V9.3038C3.5 8.9604 3.5768 8.6351 3.7304 8.3279C3.8842 8.0205 4.0966 7.7674 4.3676 7.5686L11.1986 2.4341C11.5776 2.1447 12.0108 2 12.4982 2C12.9856 2 13.42 2.1447 13.8014 2.4341L20.6324 7.5686C20.9034 7.7674 21.1158 8.0205 21.2696 8.3279C21.4232 8.6351 21.5 8.9604 21.5 9.3038V19.55C21.5 20.1466 21.2876 20.6573 20.8628 21.0821C20.438 21.5069 19.9273 21.7193 19.3307 21.7193H5.6693ZM10.8386 18.3269C10.9908 18.3269 11.1211 18.2727 11.2295 18.1643C11.3381 18.0559 11.3924 17.9255 11.3924 17.7731V13.8962C11.8538 13.8962 12.2461 13.7347 12.5693 13.4117C12.8923 13.0885 13.0538 12.6962 13.0538 12.2348V9.4655C13.0538 9.3131 12.9996 9.1827 12.8912 9.0743C12.7828 8.9659 12.6524 8.9117 12.5 8.9117C12.3476 8.9117 12.2172 8.9659 12.1088 9.0743C12.0004 9.1827 11.9462 9.3131 11.9462 9.4655V12.2348H11.3924V9.4655C11.3924 9.3131 11.3381 9.1827 11.2295 9.0743C11.1211 8.9659 10.9908 8.9117 10.8386 8.9117C10.6862 8.9117 10.5558 8.9659 10.4474 9.0743C10.3388 9.1827 10.2845 9.3131 10.2845 9.4655V12.2348H9.7307V9.4655C9.7307 9.3131 9.6765 9.1827 9.5681 9.0743C9.4597 8.9659 9.3293 8.9117 9.1769 8.9117C9.0247 8.9117 8.8943 8.9659 8.7857 9.0743C8.6773 9.1827 8.6231 9.3131 8.6231 9.4655V12.2348C8.6231 12.6962 8.7846 13.0885 9.1076 13.4117C9.4308 13.7347 9.8231 13.8962 10.2845 13.8962V17.7731C10.2845 17.9255 10.3388 18.0559 10.4474 18.1643C10.5558 18.2727 10.6862 18.3269 10.8386 18.3269ZM15.2693 18.3269C15.4215 18.3269 15.5519 18.2727 15.6605 18.1643C15.7689 18.0559 15.8231 17.9255 15.8231 17.7731V9.6317C15.8231 9.4285 15.7535 9.2577 15.6143 9.1193C15.4753 8.9809 15.3038 8.9117 15.0998 8.9117C14.5988 8.9117 14.2249 9.1424 13.9781 9.6038C13.7311 10.0654 13.6076 10.5731 13.6076 11.1269V13.3634C13.6076 13.6616 13.7295 13.8834 13.9733 14.0288C14.2173 14.1742 14.457 14.3146 14.6924 14.45H14.7155V17.7731C14.7155 17.9255 14.7697 18.0559 14.8781 18.1643C14.9865 18.2727 15.1169 18.3269 15.2693 18.3269Z" fill="#959595"/>
</svg>
