<svg width="25" height="24" viewBox="0 0 25 24" fill="none" xmlns="http://www.w3.org/2000/svg">
<path d="M9.5 14.25C9.15 14.25 8.85417 14.1292 8.6125 13.8875C8.37083 13.6458 8.25 13.35 8.25 13C8.25 12.65 8.37083 12.3542 8.6125 12.1125C8.85417 11.8708 9.15 11.75 9.5 11.75C9.85 11.75 10.1458 11.8708 10.3875 12.1125C10.6292 12.3542 10.75 12.65 10.75 13C10.75 13.35 10.6292 13.6458 10.3875 13.8875C10.1458 14.1292 9.85 14.25 9.5 14.25ZM15.5 14.25C15.15 14.25 14.8542 14.1292 14.6125 13.8875C14.3708 13.6458 14.25 13.35 14.25 13C14.25 12.65 14.3708 12.3542 14.6125 12.1125C14.8542 11.8708 15.15 11.75 15.5 11.75C15.85 11.75 16.1458 11.8708 16.3875 12.1125C16.6292 12.3542 16.75 12.65 16.75 13C16.75 13.35 16.6292 13.6458 16.3875 13.8875C16.1458 14.1292 15.85 14.25 15.5 14.25ZM12.5 20C14.7333 20 16.625 19.225 18.175 17.675C19.725 16.125 20.5 14.2333 20.5 12C20.5 11.6 20.475 11.2125 20.425 10.8375C20.375 10.4625 20.2833 10.1 20.15 9.75C19.8 9.83333 19.45 9.89583 19.1 9.9375C18.75 9.97917 18.3833 10 18 10C16.4833 10 15.05 9.675 13.7 9.025C12.35 8.375 11.2 7.46667 10.25 6.3C9.71667 7.6 8.95417 8.72917 7.9625 9.6875C6.97083 10.6458 5.81667 11.3667 4.5 11.85V12C4.5 14.2333 5.275 16.125 6.825 17.675C8.375 19.225 10.2667 20 12.5 20ZM12.5017 21.5C11.1877 21.5 9.95267 21.2507 8.7965 20.752C7.64033 20.2533 6.63467 19.5766 5.7795 18.7218C4.92433 17.8669 4.24725 16.8617 3.74825 15.706C3.24942 14.5503 3 13.3156 3 12.0017C3 10.6877 3.24933 9.45267 3.748 8.2965C4.24667 7.14033 4.92342 6.13467 5.77825 5.2795C6.63308 4.42433 7.63833 3.74725 8.794 3.24825C9.94967 2.74942 11.1844 2.5 12.4983 2.5C13.8123 2.5 15.0473 2.74933 16.2035 3.248C17.3597 3.74667 18.3653 4.42342 19.2205 5.27825C20.0757 6.13308 20.7528 7.13833 21.2518 8.294C21.7506 9.44967 22 10.6844 22 11.9983C22 13.3123 21.7507 14.5473 21.252 15.7035C20.7533 16.8597 20.0766 17.8653 19.2218 18.7205C18.3669 19.5757 17.3617 20.2528 16.206 20.7518C15.0503 21.2506 13.8156 21.5 12.5017 21.5Z" fill="#959595"/>
</svg>
