<svg width="25" height="24" viewBox="0 0 25 24" fill="none" xmlns="http://www.w3.org/2000/svg">
<path d="M14.5 19.5L19.5 14.5H15.4038C15.1478 14.5 14.9331 14.5866 14.7598 14.7598C14.5866 14.9331 14.5 15.1477 14.5 15.4038V19.5ZM5.80775 21C5.31058 21 4.885 20.823 4.531 20.469C4.177 20.115 4 19.6894 4 19.1923V5.80775C4 5.31058 4.177 4.885 4.531 4.531C4.885 4.177 5.31058 4 5.80775 4H19.1923C19.6894 4 20.115 4.177 20.469 4.531C20.823 4.885 21 5.31058 21 5.80775V14.3963C21 14.6401 20.9532 14.8725 20.8595 15.0935C20.766 15.3145 20.6372 15.507 20.473 15.671L15.671 20.473C15.507 20.6372 15.3145 20.766 15.0935 20.8595C14.8725 20.9532 14.6401 21 14.3962 21H5.80775ZM8.69225 14.2308H11.75C11.9625 14.2308 12.1407 14.1588 12.2845 14.015C12.4282 13.8712 12.5 13.693 12.5 13.4805C12.5 13.2678 12.4282 13.0898 12.2845 12.9462C12.1407 12.8026 11.9625 12.7308 11.75 12.7308H8.69225C8.47975 12.7308 8.30167 12.8027 8.158 12.9465C8.01417 13.0903 7.94225 13.2685 7.94225 13.481C7.94225 13.6937 8.01417 13.8717 8.158 14.0153C8.30167 14.1589 8.47975 14.2308 8.69225 14.2308ZM8.69225 10.25H16.3077C16.5203 10.25 16.6983 10.1781 16.842 10.0342C16.9858 9.89042 17.0577 9.71225 17.0577 9.49975C17.0577 9.28708 16.9858 9.109 16.842 8.9655C16.6983 8.82183 16.5203 8.75 16.3077 8.75H8.69225C8.47975 8.75 8.30167 8.82192 8.158 8.96575C8.01417 9.10958 7.94225 9.28775 7.94225 9.50025C7.94225 9.71292 8.01417 9.891 8.158 10.0345C8.30167 10.1782 8.47975 10.25 8.69225 10.25Z" fill="#959595"/>
</svg>
