<svg width="24" height="24" viewBox="0 0 24 24" fill="none" xmlns="http://www.w3.org/2000/svg">
<path d="M13.8626 17.8333C14.5835 17.8333 14.9643 18.6866 14.4835 19.2233C14.1711 19.5728 13.7884 19.8524 13.3604 20.0437C12.9325 20.235 12.4689 20.3337 12.0001 20.3333C11.5314 20.3337 11.0678 20.235 10.6398 20.0437C10.2119 19.8524 9.82916 19.5728 9.5168 19.2233C9.0568 18.71 9.38514 17.9075 10.0451 17.8391L10.1368 17.8341L13.8626 17.8333Z" fill="#3A3A3A"/>
<path d="M12.0001 3.66663C13.1318 3.66663 14.0885 4.41913 14.396 5.45079L14.4343 5.59329L14.441 5.62913C15.3596 6.14738 16.1424 6.87588 16.7253 7.75496C17.3082 8.63404 17.6745 9.63869 17.7943 10.6866L17.8176 10.9258L17.8335 11.1666V13.6091L17.851 13.7225C17.9651 14.3365 18.3048 14.8856 18.8034 15.2616L18.9426 15.3591L19.0776 15.4416C19.7943 15.8475 19.5443 16.9133 18.7634 16.995L18.6668 17H5.33345C4.47679 17 4.17762 15.8633 4.92262 15.4416C5.24014 15.2619 5.51449 15.0149 5.7264 14.7179C5.93831 14.4209 6.08265 14.0812 6.14929 13.7225L6.16679 13.6033L6.16762 11.1283C6.21843 10.0399 6.53525 8.98047 7.09036 8.04285C7.64546 7.10523 8.42192 6.31796 9.35178 5.74996L9.55845 5.62829L9.56679 5.59246C9.68466 5.09415 9.95257 4.64399 10.3344 4.30274C10.7161 3.96149 11.1934 3.74557 11.7018 3.68413L11.8535 3.66996L12.0001 3.66663Z" fill="#3A3A3A"/>
</svg>
