<svg width="24" height="24" viewBox="0 0 24 24" fill="none" xmlns="http://www.w3.org/2000/svg">
<path d="M10.2995 12.0943L15.7114 17.5058C15.8951 17.6899 15.9893 17.9212 15.9937 18.1997C15.9979 18.4781 15.9038 18.7136 15.7114 18.9062C15.5187 19.0986 15.2853 19.1949 15.0112 19.1949C14.737 19.1949 14.5036 19.0986 14.311 18.9062L8.3398 12.935C8.21557 12.8106 8.12788 12.6794 8.07673 12.5414C8.02558 12.4035 8 12.2544 8 12.0943C8 11.9342 8.02558 11.7852 8.07673 11.6473C8.12788 11.5093 8.21557 11.3781 8.3398 11.2537L14.311 5.28247C14.495 5.09867 14.7263 5.00456 15.0049 5.00014C15.2832 4.99593 15.5187 5.09004 15.7114 5.28247C15.9038 5.47512 16 5.70852 16 5.98266C16 6.2568 15.9038 6.49019 15.7114 6.68284L10.2995 12.0943Z" fill="#3A3A3A"/>
</svg>
