<svg width="49" height="48" viewBox="0 0 49 48" fill="none" xmlns="http://www.w3.org/2000/svg">
<path d="M25.7501 5.25C25.7501 4.91848 25.6184 4.60054 25.384 4.36612C25.1495 4.1317 24.8316 4 24.5001 4C24.1686 4 23.8506 4.1317 23.6162 4.36612C23.3818 4.60054 23.2501 4.91848 23.2501 5.25V6.75C23.2501 7.08152 23.3818 7.39946 23.6162 7.63388C23.8506 7.8683 24.1686 8 24.5001 8C24.8316 8 25.1495 7.8683 25.384 7.63388C25.6184 7.39946 25.7501 7.08152 25.7501 6.75V5.25ZM24.5001 10C22.3784 10 20.3435 10.8429 18.8432 12.3431C17.3429 13.8434 16.5001 15.8783 16.5001 18C16.5001 20.1217 17.3429 22.1566 18.8432 23.6569C20.3435 25.1571 22.3784 26 24.5001 26C26.6218 26 28.6566 25.1571 30.1569 23.6569C31.6572 22.1566 32.5001 20.1217 32.5001 18C32.5001 15.8783 31.6572 13.8434 30.1569 12.3431C28.6566 10.8429 26.6218 10 24.5001 10ZM4.79008 43.55C5.00231 43.8045 5.30692 43.9644 5.63696 43.9944C5.96699 44.0244 6.29544 43.9221 6.55008 43.71L6.56008 43.703L6.61008 43.663C6.65675 43.625 6.73008 43.5683 6.83008 43.493C7.03108 43.343 7.33708 43.123 7.74208 42.857C8.88385 42.1136 10.0784 41.4545 11.3161 40.885C15.4497 38.9791 19.9483 37.9947 24.5001 38C30.0601 38 34.5691 39.443 37.6851 40.885C38.9228 41.4545 40.1173 42.1136 41.2591 42.857C41.6461 43.1118 42.0237 43.3806 42.3911 43.663L42.4411 43.703L42.4491 43.71C42.5752 43.8152 42.7208 43.8945 42.8776 43.9433C43.0343 43.9922 43.1992 44.0097 43.3627 43.9949C43.5263 43.98 43.6853 43.9331 43.8307 43.8567C43.9761 43.7804 44.105 43.6762 44.2101 43.55C44.8901 42.669 44.0501 41.79 44.0501 41.79L44.0471 41.787L44.0171 41.763L43.9791 41.732L43.9431 41.702C43.8791 41.6513 43.7874 41.5813 43.6681 41.492C43.3304 41.2403 42.9853 40.9989 42.6331 40.768C41.3886 39.9547 40.0853 39.2351 38.7341 38.615C34.2713 36.5572 29.4144 35.4943 24.5001 35.5C19.5857 35.4943 14.7289 36.5572 10.2661 38.615C8.58108 39.395 7.26608 40.176 6.36708 40.768C5.91863 41.0628 5.48164 41.3747 5.05708 41.703L4.98208 41.763L4.96108 41.781L4.95408 41.787C4.52408 42.143 4.44708 43.138 4.79008 43.55ZM24.5001 28C25.1901 28 25.7501 28.56 25.7501 29.25V30.75C25.7501 31.0815 25.6184 31.3995 25.384 31.6339C25.1495 31.8683 24.8316 32 24.5001 32C24.1686 32 23.8506 31.8683 23.6162 31.6339C23.3818 31.3995 23.2501 31.0815 23.2501 30.75V29.25C23.2501 28.56 23.8101 28 24.5001 28ZM10.5001 17.25C10.5001 16.56 11.0601 16 11.7501 16H13.2501C13.5816 16 13.8995 16.1317 14.134 16.3661C14.3684 16.6005 14.5001 16.9185 14.5001 17.25C14.5001 17.5815 14.3684 17.8995 14.134 18.1339C13.8995 18.3683 13.5816 18.5 13.2501 18.5H11.7501C11.0601 18.5 10.5001 17.94 10.5001 17.25ZM35.7501 16C35.4186 16 35.1006 16.1317 34.8662 16.3661C34.6318 16.6005 34.5001 16.9185 34.5001 17.25C34.5001 17.5815 34.6318 17.8995 34.8662 18.1339C35.1006 18.3683 35.4186 18.5 35.7501 18.5H37.2501C37.5816 18.5 37.8995 18.3683 38.134 18.1339C38.3684 17.8995 38.5001 17.5815 38.5001 17.25C38.5001 16.9185 38.3684 16.6005 38.134 16.3661C37.8995 16.1317 37.5816 16 37.2501 16H35.7501ZM16.1341 11.634C16.018 11.7501 15.8802 11.8422 15.7285 11.9051C15.5768 11.9679 15.4143 12.0002 15.2501 12.0002C15.0859 12.0002 14.9233 11.9679 14.7717 11.9051C14.62 11.8422 14.4822 11.7501 14.3661 11.634L12.8661 10.134C12.6316 9.89955 12.4999 9.58156 12.4999 9.25C12.4999 9.08583 12.5323 8.92326 12.5951 8.77158C12.6579 8.61991 12.75 8.48209 12.8661 8.366C12.9822 8.24991 13.12 8.15782 13.2717 8.095C13.4233 8.03217 13.5859 7.99984 13.7501 7.99984C14.0816 7.99984 14.3996 8.13155 14.6341 8.366L16.1341 9.866C16.2502 9.98208 16.3423 10.1199 16.4051 10.2716C16.468 10.4232 16.5003 10.5858 16.5003 10.75C16.5003 10.9142 16.468 11.0768 16.4051 11.2284C16.3423 11.3801 16.2502 11.5179 16.1341 11.634ZM14.3661 24.366C14.6005 24.1315 14.9185 23.9998 15.2501 23.9998C15.5816 23.9998 15.8996 24.1315 16.1341 24.366C16.3685 24.6005 16.5002 24.9184 16.5002 25.25C16.5002 25.5816 16.3685 25.8995 16.1341 26.134L14.6341 27.634C14.3996 27.8685 14.0816 28.0002 13.7501 28.0002C13.4185 28.0002 13.1005 27.8685 12.8661 27.634C12.6316 27.3995 12.4999 27.0816 12.4999 26.75C12.4999 26.4184 12.6316 26.1005 12.8661 25.866L14.3661 24.366ZM32.8661 11.634C32.9822 11.7501 33.12 11.8422 33.2717 11.9051C33.4233 11.9679 33.5859 12.0002 33.7501 12.0002C33.9143 12.0002 34.0768 11.9679 34.2285 11.9051C34.3802 11.8422 34.518 11.7501 34.6341 11.634L36.1341 10.134C36.2502 10.0179 36.3423 9.88009 36.4051 9.72842C36.4679 9.57674 36.5002 9.41417 36.5002 9.25C36.5002 9.08583 36.4679 8.92326 36.4051 8.77158C36.3423 8.61991 36.2502 8.48209 36.1341 8.366C36.018 8.24991 35.8802 8.15782 35.7285 8.095C35.5768 8.03217 35.4143 7.99984 35.2501 7.99984C35.0859 7.99984 34.9233 8.03217 34.7717 8.095C34.62 8.15782 34.4822 8.24991 34.3661 8.366L32.8661 9.866C32.75 9.98208 32.6579 10.1199 32.595 10.2716C32.5322 10.4232 32.4999 10.5858 32.4999 10.75C32.4999 10.9142 32.5322 11.0768 32.595 11.2284C32.6579 11.3801 32.75 11.5179 32.8661 11.634ZM34.6341 24.366C34.518 24.2499 34.3802 24.1578 34.2285 24.095C34.0768 24.0322 33.9143 23.9998 33.7501 23.9998C33.5859 23.9998 33.4233 24.0322 33.2717 24.095C33.12 24.1578 32.9822 24.2499 32.8661 24.366C32.75 24.4821 32.6579 24.6199 32.5951 24.7716C32.5323 24.9233 32.4999 25.0858 32.4999 25.25C32.4999 25.4142 32.5323 25.5767 32.5951 25.7284C32.6579 25.8801 32.75 26.0179 32.8661 26.134L34.3661 27.634C34.6005 27.8685 34.9185 28.0002 35.2501 28.0002C35.5816 28.0002 35.8996 27.8685 36.1341 27.634C36.3685 27.3995 36.5002 27.0816 36.5002 26.75C36.5002 26.4184 36.3685 26.1005 36.1341 25.866L34.6341 24.366Z" fill="#FF583B"/>
</svg>
