<svg width="49" height="48" viewBox="0 0 49 48" fill="none" xmlns="http://www.w3.org/2000/svg">
    <path d="M33.104 29.7446C24.3247 29.7446 18.7096 24.2437 18.7096 15.4485C18.7096 13.6311 19.1479 11.0347 19.7163 9.688C19.8783 9.31412 19.8942 9.08702 19.8942 8.92501C19.8942 8.48674 19.5702 8 18.9533 8C18.7588 8 18.3856 8.04847 18.0283 8.17863C12.0241 10.5805 8 17.0389 8 23.838C8 33.3795 15.2699 40.1952 24.7789 40.1952C31.7566 40.1952 37.826 35.96 39.838 30.6696C39.9368 30.3765 39.9914 30.0704 40 29.7612C40 29.1609 39.5133 28.7552 39.0584 28.7552C38.8479 28.7552 38.6693 28.8037 38.3612 28.9006C37.1121 29.3063 35.1001 29.7453 33.104 29.7453"
          fill="#FF583B"/>
</svg>
