<svg width="49" height="48" viewBox="0 0 49 48" fill="none" xmlns="http://www.w3.org/2000/svg">
<path d="M24 12.6C23.518 12.6 23.0557 12.4085 22.7149 12.0677C22.3741 11.7269 22.1826 11.2646 22.1826 10.7826V6.81739C22.1826 6.33539 22.3741 5.87313 22.7149 5.5323C23.0557 5.19147 23.518 5 24 5C24.482 5 24.9443 5.19147 25.2851 5.5323C25.6259 5.87313 25.8174 6.33539 25.8174 6.81739V10.7826C25.8174 11.2646 25.6259 11.7269 25.2851 12.0677C24.9443 12.4085 24.482 12.6 24 12.6ZM24 43C23.518 43 23.0557 42.8085 22.7149 42.4677C22.3741 42.1269 22.1826 41.6646 22.1826 41.1826V37.2174C22.1826 36.7354 22.3741 36.2731 22.7149 35.9323C23.0557 35.5915 23.518 35.4 24 35.4C24.482 35.4 24.9443 35.5915 25.2851 35.9323C25.6259 36.2731 25.8174 36.7354 25.8174 37.2174V41.1826C25.8174 41.6646 25.6259 42.1269 25.2851 42.4677C24.9443 42.8085 24.482 43 24 43ZM33.3463 16.471C32.987 16.471 32.6357 16.3644 32.3369 16.1648C32.0381 15.9651 31.8052 15.6814 31.6676 15.3494C31.53 15.0174 31.494 14.6521 31.564 14.2996C31.634 13.9471 31.807 13.6233 32.061 13.3691L34.8647 10.5653C35.207 10.2319 35.6669 10.0468 36.1447 10.0499C36.6226 10.053 37.0799 10.2443 37.4178 10.5822C37.7557 10.9201 37.947 11.3774 37.9501 11.8553C37.9533 12.3331 37.7681 12.793 37.4347 13.1353L34.6309 15.939C34.4624 16.1079 34.2621 16.2419 34.0417 16.3332C33.8213 16.4245 33.5849 16.4713 33.3463 16.471ZM11.8499 37.9675C11.4904 37.9674 11.1391 37.8608 10.8402 37.661C10.5414 37.4613 10.3085 37.1774 10.171 36.8453C10.0335 36.5131 9.99754 36.1477 10.0677 35.7952C10.1379 35.4426 10.3111 35.1188 10.5653 34.8647L13.3691 32.061C13.537 31.8885 13.7375 31.7512 13.959 31.6569C14.1804 31.5626 14.4184 31.5132 14.659 31.5117C14.8997 31.5101 15.1383 31.5563 15.3609 31.6477C15.5836 31.739 15.7859 31.8737 15.9561 32.0439C16.1263 32.2141 16.261 32.4164 16.3523 32.6391C16.4437 32.8617 16.4899 33.1003 16.4883 33.341C16.4868 33.5816 16.4374 33.8196 16.3431 34.041C16.2488 34.2625 16.1115 34.463 15.939 34.6309L13.1353 37.4347C12.9667 37.6038 12.7664 37.7379 12.5458 37.8293C12.3252 37.9208 12.0887 37.9677 11.8499 37.9675ZM41.1826 25.8174H37.2174C36.7354 25.8174 36.2731 25.6259 35.9323 25.2851C35.5915 24.9443 35.4 24.482 35.4 24C35.4 23.518 35.5915 23.0557 35.9323 22.7149C36.2731 22.3741 36.7354 22.1826 37.2174 22.1826H41.1826C41.6646 22.1826 42.1269 22.3741 42.4677 22.7149C42.8085 23.0557 43 23.518 43 24C43 24.482 42.8085 24.9443 42.4677 25.2851C42.1269 25.6259 41.6646 25.8174 41.1826 25.8174ZM10.7826 25.8174H6.81739C6.33539 25.8174 5.87313 25.6259 5.5323 25.2851C5.19147 24.9443 5 24.482 5 24C5 23.518 5.19147 23.0557 5.5323 22.7149C5.87313 22.3741 6.33539 22.1826 6.81739 22.1826H10.7826C11.2646 22.1826 11.7269 22.3741 12.0677 22.7149C12.4085 23.0557 12.6 23.518 12.6 24C12.6 24.482 12.4085 24.9443 12.0677 25.2851C11.7269 25.6259 11.2646 25.8174 10.7826 25.8174ZM36.1501 37.9675C35.9113 37.9677 35.6748 37.9208 35.4542 37.8293C35.2336 37.7379 35.0333 37.6038 34.8647 37.4347L32.061 34.6309C31.7275 34.2886 31.5424 33.8287 31.5455 33.3509C31.5487 32.873 31.7399 32.4157 32.0778 32.0778C32.4157 31.7399 32.873 31.5487 33.3509 31.5455C33.8287 31.5424 34.2886 31.7275 34.6309 32.061L37.4347 34.8647C37.6889 35.1188 37.8621 35.4426 37.9323 35.7952C38.0025 36.1477 37.9665 36.5131 37.829 36.8453C37.6915 37.1774 37.4586 37.4613 37.1598 37.661C36.8609 37.8608 36.5096 37.9674 36.1501 37.9675ZM14.6537 16.471C14.415 16.4715 14.1787 16.4247 13.9582 16.3334C13.7378 16.2421 13.5375 16.1081 13.3691 15.939L10.5653 13.1353C10.2319 12.793 10.0468 12.3331 10.0499 11.8553C10.053 11.3774 10.2443 10.9201 10.5822 10.5822C10.9201 10.2443 11.3774 10.053 11.8553 10.0499C12.3331 10.0468 12.793 10.2319 13.1353 10.5653L15.939 13.3691C16.193 13.6233 16.366 13.9471 16.436 14.2996C16.506 14.6521 16.47 15.0174 16.3324 15.3494C16.1948 15.6814 15.9619 15.9651 15.6631 16.1648C15.3643 16.3644 15.013 16.471 14.6537 16.471ZM24 32.4261C22.3335 32.4261 20.7044 31.9319 19.3187 31.006C17.9331 30.0802 16.8531 28.7642 16.2153 27.2245C15.5776 25.6849 15.4107 23.9907 15.7358 22.3562C16.0609 20.7217 16.8634 19.2203 18.0419 18.0419C19.2203 16.8634 20.7217 16.0609 22.3562 15.7358C23.9907 15.4107 25.6849 15.5776 27.2245 16.2153C28.7642 16.8531 30.0802 17.9331 31.006 19.3187C31.9319 20.7044 32.4261 22.3335 32.4261 24C32.4235 26.2339 31.5349 28.3756 29.9552 29.9552C28.3756 31.5349 26.2339 32.4235 24 32.4261Z" fill="#FF583B"/>
</svg>
